rm: cannot remove 'mov.mp4': No such file or directory
ffmpeg version 3.4.8-0ubuntu0.2 Copyright (c) 2000-2020 the FFmpeg developers
  built with gcc 7 (Ubuntu 7.5.0-3ubuntu1~18.04)
  configuration: --prefix=/usr --extra-version=0ubuntu0.2 --toolchain=hardened --libdir=/usr/lib/x86_64-linux-gnu --incdir=/usr/include/x86_64-linux-gnu --enable-gpl --disable-stripping --enable-avresample --enable-avisynth --enable-gnutls --enable-ladspa --enable-libass --enable-libbluray --enable-libbs2b --enable-libcaca --enable-libcdio --enable-libflite --enable-libfontconfig --enable-libfreetype --enable-libfribidi --enable-libgme --enable-libgsm --enable-libmp3lame --enable-libmysofa --enable-libopenjpeg --enable-libopenmpt --enable-libopus --enable-libpulse --enable-librubberband --enable-librsvg --enable-libshine --enable-libsnappy --enable-libsoxr --enable-libspeex --enable-libssh --enable-libtheora --enable-libtwolame --enable-libvorbis --enable-libvpx --enable-libwavpack --enable-libwebp --enable-libx265 --enable-libxml2 --enable-libxvid --enable-libzmq --enable-libzvbi --enable-omx --enable-openal --enable-opengl --enable-sdl2 --enable-libdc1394 --enable-libdrm --enable-libiec61883 --enable-chromaprint --enable-frei0r --enable-libopencv --enable-libx264 --enable-shared
  WARNING: library configuration mismatch
  avcodec     configuration: --prefix=/usr --extra-version=0ubuntu0.2 --toolchain=hardened --libdir=/usr/lib/x86_64-linux-gnu --incdir=/usr/include/x86_64-linux-gnu --enable-gpl --disable-stripping --enable-avresample --enable-avisynth --enable-gnutls --enable-ladspa --enable-libass --enable-libbluray --enable-libbs2b --enable-libcaca --enable-libcdio --enable-libflite --enable-libfontconfig --enable-libfreetype --enable-libfribidi --enable-libgme --enable-libgsm --enable-libmp3lame --enable-libmysofa --enable-libopenjpeg --enable-libopenmpt --enable-libopus --enable-libpulse --enable-librubberband --enable-librsvg --enable-libshine --enable-libsnappy --enable-libsoxr --enable-libspeex --enable-libssh --enable-libtheora --enable-libtwolame --enable-libvorbis --enable-libvpx --enable-libwavpack --enable-libwebp --enable-libx265 --enable-libxml2 --enable-libxvid --enable-libzmq --enable-libzvbi --enable-omx --enable-openal --enable-opengl --enable-sdl2 --enable-libdc1394 --enable-libdrm --enable-libiec61883 --enable-chromaprint --enable-frei0r --enable-libopencv --enable-libx264 --enable-shared --enable-version3 --disable-doc --disable-programs --enable-libopencore_amrnb --enable-libopencore_amrwb --enable-libtesseract --enable-libvo_amrwbenc
  libavutil      55. 78.100 / 55. 78.100
  libavcodec     57.107.100 / 57.107.100
  libavformat    57. 83.100 / 57. 83.100
  libavdevice    57. 10.100 / 57. 10.100
  libavfilter     6.107.100 /  6.107.100
  libavresample   3.  7.  0 /  3.  7.  0
  libswscale      4.  8.100 /  4.  8.100
  libswresample   2.  9.100 /  2.  9.100
  libpostproc    54.  7.100 / 54.  7.100
Input #0, image2, from 'plot%d.png':
  Duration: 00:00:40.04, start: 0.000000, bitrate: N/A
    Stream #0:0: Video: png, rgb24(pc), 400x400, 25 fps, 25 tbr, 25 tbn, 25 tbc
Stream mapping:
  Stream #0:0 -> #0:0 (png (native) -> h264 (libx264))
Press [q] to stop, [?] for help
[libx264 @ 0x5555557e7fe0] using cpu capabilities: MMX2 SSE2Fast SSSE3 SSE4.2 AVX FMA3 BMI2 AVX2
[libx264 @ 0x5555557e7fe0] profile High, level 2.1
[libx264 @ 0x5555557e7fe0] 264 - core 152 r2854 e9a5903 - H.264/MPEG-4 AVC codec - Copyleft 2003-2017 - http://www.videolan.org/x264.html - options: cabac=1 ref=3 deblock=1:0:0 analyse=0x3:0x113 me=hex subme=7 psy=1 psy_rd=1.00:0.00 mixed_ref=1 me_range=16 chroma_me=1 trellis=1 8x8dct=1 cqm=0 deadzone=21,11 fast_pskip=1 chroma_qp_offset=-2 threads=12 lookahead_threads=2 sliced_threads=0 nr=0 decimate=1 interlaced=0 bluray_compat=0 constrained_intra=0 bframes=3 b_pyramid=2 b_adapt=1 b_bias=0 direct=1 weightb=1 open_gop=0 weightp=2 keyint=250 keyint_min=25 scenecut=40 intra_refresh=0 rc_lookahead=40 rc=crf mbtree=1 crf=23.0 qcomp=0.60 qpmin=0 qpmax=69 qpstep=4 ip_ratio=1.40 aq=1:1.00
Output #0, mp4, to 'mov.mp4':
  Metadata:
    encoder         : Lavf57.83.100
    Stream #0:0: Video: h264 (libx264) (avc1 / 0x31637661), yuv420p, 400x400, q=-1--1, 25 fps, 12800 tbn, 25 tbc
    Metadata:
      encoder         : Lavc57.107.100 libx264
    Side data:
      cpb: bitrate max/min/avg: 0/0/0 buffer size: 0 vbv_delay: -1
frame=  442 fps=0.0 q=28.0 size=       0kB time=00:00:15.32 bitrate=   0.0kbits/s speed=30.6x    frame=  895 fps=895 q=28.0 size=       0kB time=00:00:33.44 bitrate=   0.0kbits/s speed=33.4x    frame= 1001 fps=877 q=-1.0 Lsize=     245kB time=00:00:39.92 bitrate=  50.3kbits/s speed=  35x    
video:233kB audio:0kB subtitle:0kB other streams:0kB global headers:0kB muxing overhead: 5.274844%
[libx264 @ 0x5555557e7fe0] frame I:5     Avg QP:16.91  size: 12463
[libx264 @ 0x5555557e7fe0] frame P:293   Avg QP:19.74  size:   396
[libx264 @ 0x5555557e7fe0] frame B:703   Avg QP:24.08  size:    84
[libx264 @ 0x5555557e7fe0] consecutive B-frames:  3.9%  5.8%  4.8% 85.5%
[libx264 @ 0x5555557e7fe0] mb I  I16..4: 28.2% 25.8% 46.0%
[libx264 @ 0x5555557e7fe0] mb P  I16..4:  0.5%  0.2%  0.3%  P16..4:  1.6%  1.7%  1.0%  0.0%  0.0%    skip:94.8%
[libx264 @ 0x5555557e7fe0] mb B  I16..4:  0.4%  0.4%  0.2%  B16..8:  1.9%  0.5%  0.1%  direct: 0.1%  skip:96.5%  L0:48.2% L1:46.5% BI: 5.3%
[libx264 @ 0x5555557e7fe0] 8x8 transform intra:32.9% inter:18.0%
[libx264 @ 0x5555557e7fe0] coded y,uvDC,uvAC intra: 15.5% 6.4% 5.4% inter: 0.4% 0.6% 0.5%
[libx264 @ 0x5555557e7fe0] i16 v,h,dc,p: 61% 31%  8%  0%
[libx264 @ 0x5555557e7fe0] i8 v,h,dc,ddl,ddr,vr,hd,vl,hu: 15%  5% 80%  0%  0%  0%  0%  0%  0%
[libx264 @ 0x5555557e7fe0] i4 v,h,dc,ddl,ddr,vr,hd,vl,hu: 36% 23% 33%  1%  1%  3%  1%  1%  2%
[libx264 @ 0x5555557e7fe0] i8c dc,h,v,p: 81% 12%  7%  0%
[libx264 @ 0x5555557e7fe0] Weighted P-Frames: Y:0.0% UV:0.0%
[libx264 @ 0x5555557e7fe0] ref P L0: 70.3%  3.5% 15.9% 10.3%
[libx264 @ 0x5555557e7fe0] ref B L0: 65.4% 29.4%  5.2%
[libx264 @ 0x5555557e7fe0] ref B L1: 93.4%  6.6%
[libx264 @ 0x5555557e7fe0] kb/s:47.46
ffmpeg version 3.4.8-0ubuntu0.2 Copyright (c) 2000-2020 the FFmpeg developers
  built with gcc 7 (Ubuntu 7.5.0-3ubuntu1~18.04)
  configuration: --prefix=/usr --extra-version=0ubuntu0.2 --toolchain=hardened --libdir=/usr/lib/x86_64-linux-gnu --incdir=/usr/include/x86_64-linux-gnu --enable-gpl --disable-stripping --enable-avresample --enable-avisynth --enable-gnutls --enable-ladspa --enable-libass --enable-libbluray --enable-libbs2b --enable-libcaca --enable-libcdio --enable-libflite --enable-libfontconfig --enable-libfreetype --enable-libfribidi --enable-libgme --enable-libgsm --enable-libmp3lame --enable-libmysofa --enable-libopenjpeg --enable-libopenmpt --enable-libopus --enable-libpulse --enable-librubberband --enable-librsvg --enable-libshine --enable-libsnappy --enable-libsoxr --enable-libspeex --enable-libssh --enable-libtheora --enable-libtwolame --enable-libvorbis --enable-libvpx --enable-libwavpack --enable-libwebp --enable-libx265 --enable-libxml2 --enable-libxvid --enable-libzmq --enable-libzvbi --enable-omx --enable-openal --enable-opengl --enable-sdl2 --enable-libdc1394 --enable-libdrm --enable-libiec61883 --enable-chromaprint --enable-frei0r --enable-libopencv --enable-libx264 --enable-shared
  WARNING: library configuration mismatch
  avcodec     configuration: --prefix=/usr --extra-version=0ubuntu0.2 --toolchain=hardened --libdir=/usr/lib/x86_64-linux-gnu --incdir=/usr/include/x86_64-linux-gnu --enable-gpl --disable-stripping --enable-avresample --enable-avisynth --enable-gnutls --enable-ladspa --enable-libass --enable-libbluray --enable-libbs2b --enable-libcaca --enable-libcdio --enable-libflite --enable-libfontconfig --enable-libfreetype --enable-libfribidi --enable-libgme --enable-libgsm --enable-libmp3lame --enable-libmysofa --enable-libopenjpeg --enable-libopenmpt --enable-libopus --enable-libpulse --enable-librubberband --enable-librsvg --enable-libshine --enable-libsnappy --enable-libsoxr --enable-libspeex --enable-libssh --enable-libtheora --enable-libtwolame --enable-libvorbis --enable-libvpx --enable-libwavpack --enable-libwebp --enable-libx265 --enable-libxml2 --enable-libxvid --enable-libzmq --enable-libzvbi --enable-omx --enable-openal --enable-opengl --enable-sdl2 --enable-libdc1394 --enable-libdrm --enable-libiec61883 --enable-chromaprint --enable-frei0r --enable-libopencv --enable-libx264 --enable-shared --enable-version3 --disable-doc --disable-programs --enable-libopencore_amrnb --enable-libopencore_amrwb --enable-libtesseract --enable-libvo_amrwbenc
  libavutil      55. 78.100 / 55. 78.100
  libavcodec     57.107.100 / 57.107.100
  libavformat    57. 83.100 / 57. 83.100
  libavdevice    57. 10.100 / 57. 10.100
  libavfilter     6.107.100 /  6.107.100
  libavresample   3.  7.  0 /  3.  7.  0
  libswscale      4.  8.100 /  4.  8.100
  libswresample   2.  9.100 /  2.  9.100
  libpostproc    54.  7.100 / 54.  7.100
Input #0, mov,mp4,m4a,3gp,3g2,mj2, from 'T.mp4':
  Metadata:
    major_brand     : isom
    minor_version   : 512
    compatible_brands: isomiso2avc1mp41
    encoder         : Lavf57.83.100
  Duration: 00:00:40.04, start: 0.000000, bitrate: 106 kb/s
    Stream #0:0(und): Video: h264 (High) (avc1 / 0x31637661), yuv420p, 400x400, 103 kb/s, 25 fps, 25 tbr, 12800 tbn, 50 tbc (default)
    Metadata:
      handler_name    : VideoHandler
Input #1, mov,mp4,m4a,3gp,3g2,mj2, from 'mov.mp4':
  Metadata:
    major_brand     : isom
    minor_version   : 512
    compatible_brands: isomiso2avc1mp41
    encoder         : Lavf57.83.100
  Duration: 00:00:40.04, start: 0.000000, bitrate: 50 kb/s
    Stream #1:0(und): Video: h264 (High) (avc1 / 0x31637661), yuv420p, 400x400, 47 kb/s, 25 fps, 25 tbr, 12800 tbn, 50 tbc (default)
    Metadata:
      handler_name    : VideoHandler
Stream mapping:
  Stream #0:0 (h264) -> hstack:input0
  Stream #1:0 (h264) -> hstack:input1
  hstack -> Stream #0:0 (libx264)
Press [q] to stop, [?] for help
[libx264 @ 0x55555581db40] using cpu capabilities: MMX2 SSE2Fast SSSE3 SSE4.2 AVX FMA3 BMI2 AVX2
[libx264 @ 0x55555581db40] profile High, level 3.0
[libx264 @ 0x55555581db40] 264 - core 152 r2854 e9a5903 - H.264/MPEG-4 AVC codec - Copyleft 2003-2017 - http://www.videolan.org/x264.html - options: cabac=1 ref=3 deblock=1:0:0 analyse=0x3:0x113 me=hex subme=7 psy=1 psy_rd=1.00:0.00 mixed_ref=1 me_range=16 chroma_me=1 trellis=1 8x8dct=1 cqm=0 deadzone=21,11 fast_pskip=1 chroma_qp_offset=-2 threads=12 lookahead_threads=2 sliced_threads=0 nr=0 decimate=1 interlaced=0 bluray_compat=0 constrained_intra=0 bframes=3 b_pyramid=2 b_adapt=1 b_bias=0 direct=1 weightb=1 open_gop=0 weightp=2 keyint=250 keyint_min=25 scenecut=40 intra_refresh=0 rc_lookahead=40 rc=crf mbtree=1 crf=23.0 qcomp=0.60 qpmin=0 qpmax=69 qpstep=4 ip_ratio=1.40 aq=1:1.00
Output #0, mp4, to 'output.mp4':
  Metadata:
    major_brand     : isom
    minor_version   : 512
    compatible_brands: isomiso2avc1mp41
    encoder         : Lavf57.83.100
    Stream #0:0: Video: h264 (libx264) (avc1 / 0x31637661), yuv420p, 800x400, q=-1--1, 25 fps, 12800 tbn, 25 tbc (default)
    Metadata:
      encoder         : Lavc57.107.100 libx264
    Side data:
      cpb: bitrate max/min/avg: 0/0/0 buffer size: 0 vbv_delay: -1
frame=  219 fps=0.0 q=28.0 size=       0kB time=00:00:06.40 bitrate=   0.1kbits/s speed=12.8x    frame=  417 fps=416 q=28.0 size=     256kB time=00:00:14.32 bitrate= 146.5kbits/s speed=14.3x    frame=  874 fps=582 q=28.0 size=     512kB time=00:00:32.60 bitrate= 128.7kbits/s speed=21.7x    frame= 1001 fps=609 q=-1.0 Lsize=     551kB time=00:00:39.92 bitrate= 113.1kbits/s speed=24.3x    
video:539kB audio:0kB subtitle:0kB other streams:0kB global headers:0kB muxing overhead: 2.282791%
[libx264 @ 0x55555581db40] frame I:5     Avg QP:15.90  size: 13183
[libx264 @ 0x55555581db40] frame P:283   Avg QP:16.88  size:   825
[libx264 @ 0x55555581db40] frame B:713   Avg QP:14.57  size:   353
[libx264 @ 0x55555581db40] consecutive B-frames:  2.9%  4.6%  5.4% 87.1%
[libx264 @ 0x55555581db40] mb I  I16..4: 32.7% 43.9% 23.4%
[libx264 @ 0x55555581db40] mb P  I16..4: 10.4% 13.8%  0.1%  P16..4:  3.1%  1.0%  0.5%  0.0%  0.0%    skip:71.0%
[libx264 @ 0x55555581db40] mb B  I16..4:  2.2%  1.1%  0.0%  B16..8:  3.4%  0.3%  0.0%  direct: 7.2%  skip:85.7%  L0:50.8% L1:46.7% BI: 2.5%
[libx264 @ 0x55555581db40] 8x8 transform intra:50.6% inter:57.7%
[libx264 @ 0x55555581db40] coded y,uvDC,uvAC intra: 2.7% 18.4% 3.4% inter: 0.4% 7.1% 0.3%
[libx264 @ 0x55555581db40] i16 v,h,dc,p: 82%  9%  7%  2%
[libx264 @ 0x55555581db40] i8 v,h,dc,ddl,ddr,vr,hd,vl,hu: 43%  9% 44%  0%  1%  1%  1%  0%  0%
[libx264 @ 0x55555581db40] i4 v,h,dc,ddl,ddr,vr,hd,vl,hu: 42% 34% 15%  2%  1%  1%  2%  1%  2%
[libx264 @ 0x55555581db40] i8c dc,h,v,p: 71%  9% 18%  1%
[libx264 @ 0x55555581db40] Weighted P-Frames: Y:0.7% UV:0.7%
[libx264 @ 0x55555581db40] ref P L0: 58.4%  5.7% 18.0% 17.8%  0.1%
[libx264 @ 0x55555581db40] ref B L0: 79.1% 16.9%  4.0%
[libx264 @ 0x55555581db40] ref B L1: 97.2%  2.8%
[libx264 @ 0x55555581db40] kb/s:110.13
ffmpeg version 3.4.8-0ubuntu0.2 Copyright (c) 2000-2020 the FFmpeg developers
  built with gcc 7 (Ubuntu 7.5.0-3ubuntu1~18.04)
  configuration: --prefix=/usr --extra-version=0ubuntu0.2 --toolchain=hardened --libdir=/usr/lib/x86_64-linux-gnu --incdir=/usr/include/x86_64-linux-gnu --enable-gpl --disable-stripping --enable-avresample --enable-avisynth --enable-gnutls --enable-ladspa --enable-libass --enable-libbluray --enable-libbs2b --enable-libcaca --enable-libcdio --enable-libflite --enable-libfontconfig --enable-libfreetype --enable-libfribidi --enable-libgme --enable-libgsm --enable-libmp3lame --enable-libmysofa --enable-libopenjpeg --enable-libopenmpt --enable-libopus --enable-libpulse --enable-librubberband --enable-librsvg --enable-libshine --enable-libsnappy --enable-libsoxr --enable-libspeex --enable-libssh --enable-libtheora --enable-libtwolame --enable-libvorbis --enable-libvpx --enable-libwavpack --enable-libwebp --enable-libx265 --enable-libxml2 --enable-libxvid --enable-libzmq --enable-libzvbi --enable-omx --enable-openal --enable-opengl --enable-sdl2 --enable-libdc1394 --enable-libdrm --enable-libiec61883 --enable-chromaprint --enable-frei0r --enable-libopencv --enable-libx264 --enable-shared
  WARNING: library configuration mismatch
  avcodec     configuration: --prefix=/usr --extra-version=0ubuntu0.2 --toolchain=hardened --libdir=/usr/lib/x86_64-linux-gnu --incdir=/usr/include/x86_64-linux-gnu --enable-gpl --disable-stripping --enable-avresample --enable-avisynth --enable-gnutls --enable-ladspa --enable-libass --enable-libbluray --enable-libbs2b --enable-libcaca --enable-libcdio --enable-libflite --enable-libfontconfig --enable-libfreetype --enable-libfribidi --enable-libgme --enable-libgsm --enable-libmp3lame --enable-libmysofa --enable-libopenjpeg --enable-libopenmpt --enable-libopus --enable-libpulse --enable-librubberband --enable-librsvg --enable-libshine --enable-libsnappy --enable-libsoxr --enable-libspeex --enable-libssh --enable-libtheora --enable-libtwolame --enable-libvorbis --enable-libvpx --enable-libwavpack --enable-libwebp --enable-libx265 --enable-libxml2 --enable-libxvid --enable-libzmq --enable-libzvbi --enable-omx --enable-openal --enable-opengl --enable-sdl2 --enable-libdc1394 --enable-libdrm --enable-libiec61883 --enable-chromaprint --enable-frei0r --enable-libopencv --enable-libx264 --enable-shared --enable-version3 --disable-doc --disable-programs --enable-libopencore_amrnb --enable-libopencore_amrwb --enable-libtesseract --enable-libvo_amrwbenc
  libavutil      55. 78.100 / 55. 78.100
  libavcodec     57.107.100 / 57.107.100
  libavformat    57. 83.100 / 57. 83.100
  libavdevice    57. 10.100 / 57. 10.100
  libavfilter     6.107.100 /  6.107.100
  libavresample   3.  7.  0 /  3.  7.  0
  libswscale      4.  8.100 /  4.  8.100
  libswresample   2.  9.100 /  2.  9.100
  libpostproc    54.  7.100 / 54.  7.100
Input #0, mov,mp4,m4a,3gp,3g2,mj2, from 'output.mp4':
  Metadata:
    major_brand     : isom
    minor_version   : 512
    compatible_brands: isomiso2avc1mp41
    encoder         : Lavf57.83.100
  Duration: 00:00:40.04, start: 0.000000, bitrate: 112 kb/s
    Stream #0:0(und): Video: h264 (High) (avc1 / 0x31637661), yuv420p, 800x400, 110 kb/s, 25 fps, 25 tbr, 12800 tbn, 50 tbc (default)
    Metadata:
      handler_name    : VideoHandler
Input #1, mov,mp4,m4a,3gp,3g2,mj2, from 'vor.mp4':
  Metadata:
    major_brand     : isom
    minor_version   : 512
    compatible_brands: isomiso2avc1mp41
    encoder         : Lavf57.83.100
  Duration: 00:00:40.04, start: 0.000000, bitrate: 228 kb/s
    Stream #1:0(und): Video: h264 (High) (avc1 / 0x31637661), yuv420p, 800x400, 226 kb/s, 25 fps, 25 tbr, 12800 tbn, 50 tbc (default)
    Metadata:
      handler_name    : VideoHandler
Stream mapping:
  Stream #0:0 (h264) -> vstack:input0
  Stream #1:0 (h264) -> vstack:input1
  vstack -> Stream #0:0 (libx264)
Press [q] to stop, [?] for help
[libx264 @ 0x55555581c9c0] using cpu capabilities: MMX2 SSE2Fast SSSE3 SSE4.2 AVX FMA3 BMI2 AVX2
[libx264 @ 0x55555581c9c0] profile High, level 3.1
[libx264 @ 0x55555581c9c0] 264 - core 152 r2854 e9a5903 - H.264/MPEG-4 AVC codec - Copyleft 2003-2017 - http://www.videolan.org/x264.html - options: cabac=1 ref=3 deblock=1:0:0 analyse=0x3:0x113 me=hex subme=7 psy=1 psy_rd=1.00:0.00 mixed_ref=1 me_range=16 chroma_me=1 trellis=1 8x8dct=1 cqm=0 deadzone=21,11 fast_pskip=1 chroma_qp_offset=-2 threads=18 lookahead_threads=3 sliced_threads=0 nr=0 decimate=1 interlaced=0 bluray_compat=0 constrained_intra=0 bframes=3 b_pyramid=2 b_adapt=1 b_bias=0 direct=1 weightb=1 open_gop=0 weightp=2 keyint=250 keyint_min=25 scenecut=40 intra_refresh=0 rc_lookahead=40 rc=crf mbtree=1 crf=23.0 qcomp=0.60 qpmin=0 qpmax=69 qpstep=4 ip_ratio=1.40 aq=1:1.00
Output #0, mp4, to 'output2.mp4':
  Metadata:
    major_brand     : isom
    minor_version   : 512
    compatible_brands: isomiso2avc1mp41
    encoder         : Lavf57.83.100
    Stream #0:0: Video: h264 (libx264) (avc1 / 0x31637661), yuv420p, 800x800, q=-1--1, 25 fps, 12800 tbn, 25 tbc (default)
    Metadata:
      encoder         : Lavc57.107.100 libx264
    Side data:
      cpb: bitrate max/min/avg: 0/0/0 buffer size: 0 vbv_delay: -1
frame=  168 fps=0.0 q=28.0 size=       0kB time=00:00:04.12 bitrate=   0.1kbits/s speed=8.18x    frame=  343 fps=340 q=28.0 size=     512kB time=00:00:11.12 bitrate= 377.2kbits/s speed=  11x    frame=  529 fps=350 q=28.0 size=     768kB time=00:00:18.56 bitrate= 339.0kbits/s speed=12.3x    frame=  749 fps=372 q=28.0 size=    1024kB time=00:00:27.36 bitrate= 306.6kbits/s speed=13.6x    frame=  999 fps=397 q=28.0 size=    1024kB time=00:00:37.36 bitrate= 224.5kbits/s speed=14.9x    frame= 1001 fps=388 q=-1.0 Lsize=    1228kB time=00:00:39.92 bitrate= 252.0kbits/s speed=15.5x    
video:1215kB audio:0kB subtitle:0kB other streams:0kB global headers:0kB muxing overhead: 1.023923%
[libx264 @ 0x55555581c9c0] frame I:5     Avg QP:19.80  size: 30072
[libx264 @ 0x55555581c9c0] frame P:258   Avg QP:18.22  size:  1612
[libx264 @ 0x55555581c9c0] frame B:738   Avg QP:16.49  size:   918
[libx264 @ 0x55555581c9c0] consecutive B-frames:  0.8%  1.2%  4.5% 93.5%
[libx264 @ 0x55555581c9c0] mb I  I16..4: 26.1% 48.9% 25.0%
[libx264 @ 0x55555581c9c0] mb P  I16..4:  6.2%  6.5%  0.3%  P16..4:  4.6%  1.0%  0.6%  0.0%  0.0%    skip:80.8%
[libx264 @ 0x55555581c9c0] mb B  I16..4:  1.7%  0.9%  0.2%  B16..8:  3.9%  0.6%  0.1%  direct: 4.3%  skip:88.4%  L0:51.3% L1:44.2% BI: 4.5%
[libx264 @ 0x55555581c9c0] 8x8 transform intra:43.8% inter:67.4%
[libx264 @ 0x55555581c9c0] coded y,uvDC,uvAC intra: 7.3% 26.0% 8.5% inter: 0.9% 4.9% 0.2%
[libx264 @ 0x55555581c9c0] i16 v,h,dc,p: 76% 15%  6%  2%
[libx264 @ 0x55555581c9c0] i8 v,h,dc,ddl,ddr,vr,hd,vl,hu: 39% 14% 44%  0%  1%  1%  1%  0%  1%
[libx264 @ 0x55555581c9c0] i4 v,h,dc,ddl,ddr,vr,hd,vl,hu: 47% 37% 11%  1%  1%  1%  1%  1%  1%
[libx264 @ 0x55555581c9c0] i8c dc,h,v,p: 65% 15% 18%  2%
[libx264 @ 0x55555581c9c0] Weighted P-Frames: Y:0.0% UV:0.0%
[libx264 @ 0x55555581c9c0] ref P L0: 38.9%  4.4% 23.1% 33.6%
[libx264 @ 0x55555581c9c0] ref B L0: 72.9% 17.7%  9.4%
[libx264 @ 0x55555581c9c0] ref B L1: 93.7%  6.3%
[libx264 @ 0x55555581c9c0] kb/s:248.52
